<svg xmlns="http://www.w3.org/2000/svg" viewBox="0 0 64 64">
  <defs>
    <linearGradient id="bg" x1="0%" y1="0%" x2="100%" y2="100%">
      <stop offset="0%" stop-color="#0ea5e9" />
      <stop offset="100%" stop-color="#2563eb" />
    </linearGradient>
    <linearGradient id="tick" x1="0%" y1="0%" x2="100%" y2="0%">
      <stop offset="0%" stop-color="#22c55e" />
      <stop offset="100%" stop-color="#10b981" />
    </linearGradient>
  </defs>
  <rect x="4" y="4" width="56" height="56" rx="14" fill="url(#bg)" />
  <rect x="16" y="18" width="32" height="4" rx="2" fill="#dbeafe" opacity="0.9" />
  <rect x="16" y="27" width="20" height="4" rx="2" fill="#dbeafe" opacity="0.82" />
  <rect x="16" y="36" width="14" height="4" rx="2" fill="#dbeafe" opacity="0.72" />
  <path
    d="M42 45.5a2.3 2.3 0 0 1-1.63-.67l-4.55-4.55a2.3 2.3 0 1 1 3.26-3.25l2.92 2.92 6.82-6.82a2.3 2.3 0 0 1 3.25 3.26l-8.44 8.44a2.3 2.3 0 0 1-1.63.67Z"
    fill="url(#tick)"
  />
</svg>
